# xmcd CD database file
#
# Track frame offsets:
#	150
#	15048
#	30110
#	47040
#	60028
#	81252
#	93383
#	106566
#	125151
#	142149
#	157289
#	175739
#	191467
#
# Disc length: 2827 seconds
#
# Revision: 0
# Processed by: cddbd v1.5.2PL0 Copyright (c) Steve Scherf et al.
# Submitted via: CDex 1.70beta2
#
DISCID=970b090d
DTITLE=Brad Paisley - Who Needs Pictures
DYEAR=1999
DGENRE=Country
TTITLE0=Long Sermon
TTITLE1=Me Neither
TTITLE2=Who Needs Pictures
TTITLE3=Don't Breathe
TTITLE4=He Didn't Have To Be
TTITLE5=It Never Woulda Worked Out Anyway
TTITLE6=Holdin' On To You
TTITLE7=I've Been Better
TTITLE8=We Danced
TTITLE9=Sleepin' On The Foldout
TTITLE10=Cloud Of Dust
TTITLE11=The Nervous Breakdown (Instrumental)
TTITLE12=In The Garden
EXTD=YEAR: 1999
EXTT0=
EXTT1=
EXTT2=
EXTT3=
EXTT4=
EXTT5=
EXTT6=
EXTT7=
EXTT8=
EXTT9=
EXTT10=
EXTT11=
EXTT12=
PLAYORDER=
